HIERARCHY
ROOT Hips
{
    OFFSET   0.000000   0.000000   0.000000
    CHANNELS 6 Xposition Yposition Zposition Zrotation Xrotation Yrotation
    JOINT Chest
    {
        OFFSET   0.000000   8.007230   0.000000
        CHANNELS 3 Zrotation Xrotation Yrotation
        JOINT Chest2
        {
            OFFSET   0.000000  22.077100   0.000000
            CHANNELS 3 Zrotation Xrotation Yrotation
            JOINT Neck
            {
                OFFSET   0.000000  23.255100   0.000000
                CHANNELS 3 Zrotation Xrotation Yrotation
                JOINT Head
                {
                    OFFSET   0.000000  14.370100   1.956600
                    CHANNELS 3 Zrotation Xrotation Yrotation
                    End Site
                    {
                        OFFSET   0.000000  19.566000   0.000000
                    }
                }
            }
            JOINT LeftCollar
            {
                OFFSET   3.911900  19.017000  -0.467063
                CHANNELS 3 Zrotation Xrotation Yrotation
                JOINT LeftShoulder
                {
                    OFFSET  10.383700   0.000000   0.000000
                    CHANNELS 3 Zrotation Xrotation Yrotation
                    JOINT LeftElbow
                    {
                        OFFSET  26.662100   0.001193   0.000980
                        CHANNELS 3 Zrotation Xrotation Yrotation
                        JOINT LeftWrist
                        {
                            OFFSET  28.869000  -0.000059  -0.000082
                            CHANNELS 3 Zrotation Xrotation Yrotation
                            JOINT LeftFinger0
                            {
                                OFFSET   2.044650  -2.323450   3.252850
                                CHANNELS 3 Zrotation Xrotation Yrotation
                                JOINT LeftFinger01
                                {
                                    OFFSET   3.088130   0.000000   0.000000
                                    CHANNELS 3 Zrotation Xrotation Yrotation
                                    JOINT LeftFinger02
                                    {
                                        OFFSET   2.639460   0.000000   0.000000
                                        CHANNELS 3 Zrotation Xrotation Yrotation
                                        End Site
                                        {
                                            OFFSET   2.582190   0.000000   0.000000
                                        }
                                    }
                                }
                            }
                            JOINT LeftFinger1
                            {
                                OFFSET   8.364480   0.000000   3.252850
                                CHANNELS 3 Zrotation Xrotation Yrotation
                                JOINT LeftFinger11
                                {
                                    OFFSET   4.646930   0.000000   0.000000
                                    CHANNELS 3 Zrotation Xrotation Yrotation
                                    JOINT LeftFinger12
                                    {
                                        OFFSET   2.323470   0.000000   0.000000
                                        CHANNELS 3 Zrotation Xrotation Yrotation
                                        End Site
                                        {
                                            OFFSET   2.273050   0.000000   0.000000
                                        }
                                    }
                                }
                            }
                            JOINT LeftFinger2
                            {
                                OFFSET   8.364490   0.000016   1.078090
                                CHANNELS 3 Zrotation Xrotation Yrotation
                                JOINT LeftFinger21
                                {
                                    OFFSET   5.111610   0.000000   0.000000
                                    CHANNELS 3 Zrotation Xrotation Yrotation
                                    JOINT LeftFinger22
                                    {
                                        OFFSET   2.788150   0.000016   0.000000
                                        CHANNELS 3 Zrotation Xrotation Yrotation
                                        End Site
                                        {
                                            OFFSET   2.727660   0.000000   0.000000
                                        }
                                    }
                                }
                            }
                            JOINT LeftFinger3
                            {
                                OFFSET   7.899780   0.000015  -1.078090
                                CHANNELS 3 Zrotation Xrotation Yrotation
                                JOINT LeftFinger31
                                {
                                    OFFSET   4.646930   0.000000   0.000000
                                    CHANNELS 3 Zrotation Xrotation Yrotation
                                    JOINT LeftFinger32
                                    {
                                        OFFSET   2.323470   0.000000   0.000000
                                        CHANNELS 3 Zrotation Xrotation Yrotation
                                        End Site
                                        {
                                            OFFSET   2.273050   0.000000   0.000000
                                        }
                                    }
                                }
                            }
                            JOINT LeftFinger4
                            {
                                OFFSET   7.435090   0.000000  -3.252850
                                CHANNELS 3 Zrotation Xrotation Yrotation
                                JOINT LeftFinger41
                                {
                                    OFFSET   3.717550   0.000000   0.000000
                                    CHANNELS 3 Zrotation Xrotation Yrotation
                                    JOINT LeftFinger42
                                    {
                                        OFFSET   1.858770   0.000000   0.000000
                                        CHANNELS 3 Zrotation Xrotation Yrotation
                                        End Site
                                        {
                                            OFFSET   1.818440   0.000000   0.000000
                                        }
                                    }
                                }
                            }
                        }
                    }
                }
            }
            JOINT RightCollar
            {
                OFFSET  -3.911910  19.017000  -0.467062
                CHANNELS 3 Zrotation Xrotation Yrotation
                JOINT RightShoulder
                {
                    OFFSET -10.383700   0.000014   0.000000
                    CHANNELS 3 Zrotation Xrotation Yrotation
                    JOINT RightElbow
                    {
                        OFFSET -26.662100   0.001225   0.001091
                        CHANNELS 3 Zrotation Xrotation Yrotation
                        JOINT RightWrist
                        {
                            OFFSET -28.869000  -0.000020  -0.000085
                            CHANNELS 3 Zrotation Xrotation Yrotation
                            JOINT RightFinger0
                            {
                                OFFSET  -2.044650  -2.323490   3.252850
                                CHANNELS 3 Zrotation Xrotation Yrotation
                                JOINT RightFinger01
                                {
                                    OFFSET  -3.088130   0.000000   0.000000
                                    CHANNELS 3 Zrotation Xrotation Yrotation
                                    JOINT RightFinger02
                                    {
                                        OFFSET  -2.639460   0.000000   0.000000
                                        CHANNELS 3 Zrotation Xrotation Yrotation
                                        End Site
                                        {
                                            OFFSET  -2.582190   0.000000   0.000000
                                        }
                                    }
                                }
                            }
                            JOINT RightFinger1
                            {
                                OFFSET  -8.364480   0.000000   3.252850
                                CHANNELS 3 Zrotation Xrotation Yrotation
                                JOINT RightFinger11
                                {
                                    OFFSET  -4.646930   0.000000   0.000000
                                    CHANNELS 3 Zrotation Xrotation Yrotation
                                    JOINT RightFinger12
                                    {
                                        OFFSET  -2.323470   0.000000   0.000000
                                        CHANNELS 3 Zrotation Xrotation Yrotation
                                        End Site
                                        {
                                            OFFSET  -2.273050   0.000000   0.000000
                                        }
                                    }
                                }
                            }
                            JOINT RightFinger2
                            {
                                OFFSET  -8.364480   0.000000   1.078090
                                CHANNELS 3 Zrotation Xrotation Yrotation
                                JOINT RightFinger21
                                {
                                    OFFSET  -5.111620   0.000000   0.000000
                                    CHANNELS 3 Zrotation Xrotation Yrotation
                                    JOINT RightFinger22
                                    {
                                        OFFSET  -2.788160   0.000000   0.000000
                                        CHANNELS 3 Zrotation Xrotation Yrotation
                                        End Site
                                        {
                                            OFFSET  -2.727660   0.000000   0.000000
                                        }
                                    }
                                }
                            }
                            JOINT RightFinger3
                            {
                                OFFSET  -7.899780   0.000000  -1.078090
                                CHANNELS 3 Zrotation Xrotation Yrotation
                                JOINT RightFinger31
                                {
                                    OFFSET  -4.646930   0.000000   0.000000
                                    CHANNELS 3 Zrotation Xrotation Yrotation
                                    JOINT RightFinger32
                                    {
                                        OFFSET  -2.323470   0.000000   0.000000
                                        CHANNELS 3 Zrotation Xrotation Yrotation
                                        End Site
                                        {
                                            OFFSET  -2.273050   0.000000   0.000000
                                        }
                                    }
                                }
                            }
                            JOINT RightFinger4
                            {
                                OFFSET  -7.435090   0.000000  -3.252850
                                CHANNELS 3 Zrotation Xrotation Yrotation
                                JOINT RightFinger41
                                {
                                    OFFSET  -3.717550   0.000000   0.000000
                                    CHANNELS 3 Zrotation Xrotation Yrotation
                                    JOINT RightFinger42
                                    {
                                        OFFSET  -1.858760   0.000000   0.000000
                                        CHANNELS 3 Zrotation Xrotation Yrotation
                                        End Site
                                        {
                                            OFFSET  -1.818440   0.000000   0.000000
                                        }
                                    }
                                }
                            }
                        }
                    }
                }
            }
        }
    }
    JOINT LeftHip
    {
        OFFSET   9.783030   0.000000   0.000000
        CHANNELS 3 Zrotation Xrotation Yrotation
        JOINT LeftKnee
        {
            OFFSET   0.000063 -41.789100   0.000608
            CHANNELS 3 Zrotation Xrotation Yrotation
            JOINT LeftAnkle
            {
                OFFSET   0.000048 -41.133200  -0.000184
                CHANNELS 3 Zrotation Xrotation Yrotation
                JOINT LeftToe
                {
                    OFFSET   0.000000  -6.358960  14.674500
                    CHANNELS 3 Zrotation Xrotation Yrotation
                    End Site
                    {
                        OFFSET   0.000000   0.000000   3.913200
                    }
                }
            }
        }
    }
    JOINT RightHip
    {
        OFFSET  -9.783030   0.000000   0.000000
        CHANNELS 3 Zrotation Xrotation Yrotation
        JOINT RightKnee
        {
            OFFSET   0.000071 -41.789100   0.001239
            CHANNELS 3 Zrotation Xrotation Yrotation
            JOINT RightAnkle
            {
                OFFSET   0.000037 -41.133200  -0.000166
                CHANNELS 3 Zrotation Xrotation Yrotation
                JOINT RightToe
                {
                    OFFSET   0.000000  -6.358960  14.674500
                    CHANNELS 3 Zrotation Xrotation Yrotation
                    End Site
                    {
                        OFFSET   0.000000   0.000000   3.913200
                    }
                }
            }
        }
    }
}
MOTION
Frames: 6
Frame Time:   0.016667
  1.657470  89.721500   1.493870  -4.220740 -17.340300 -10.866700   0.054226  11.587000  -0.256740   0.168110  23.173700  -0.542188   1.530580  -3.221280   0.083421   2.536450  -6.518100  19.592900  -6.910730  -6.612330   5.297990 -59.083400  24.995900 -15.868500  -0.631526   6.294830 -119.136000  52.718500 -13.665400   4.705260  54.161000  51.923100 -102.190000 -17.074600   0.004571   0.007853  -3.537300   0.000273  -0.000000 -82.709200   4.970270  -0.635873 -67.693700   0.000458  -0.004953 -50.770300   0.001994  -0.003759 -89.000000  -0.008646   0.000205 -91.145000   0.000855  -0.007445 -68.358700   0.003108  -0.001353 -88.009900  -4.996880   0.172886 -88.017500   0.001087  -0.007521 -66.013200   0.003598  -0.001935 -88.984600  -9.997190   0.176309 -110.000000  -0.002752   0.002235 -80.000000  -0.002251  -0.005783  14.951500  -4.225370  16.904400  39.805000  35.053300  18.677400  -1.798970  -6.445220 113.081000 -51.932600  -8.216820  27.864500 -38.186000  39.457200  80.138400  35.165900   0.002713  -0.001829  12.583000  -0.000677   0.002711  88.996100   5.002720   0.088246  76.690800   0.000970   0.001858  57.518100   0.003873   0.000902  88.530900  -0.000656   0.000821  88.530900  -0.000316   0.002886  66.398200   0.001334   0.006810  88.996200  -4.996580  -0.087792  93.615500   0.001196   0.002009  70.211500   0.001315  -0.000960  88.984700  -9.995780  -0.176306 110.000000   0.000000  -0.003186  79.994700  -0.006139   0.001346  -0.320977  17.428400   5.195640  -0.896600   3.264930  15.484800  -2.564150  -6.367910  10.301100  -0.000000   0.000000  -0.000000   2.553550   9.949050  -6.396020  -4.507900  15.148000  -3.318070  -8.078740  -4.453730   2.197270   0.000000   0.000000   0.000000
  1.677770  89.701700   1.435160  -4.176390 -17.371700 -10.777500   0.024218  11.498900  -0.216163   0.096809  22.997800  -0.451537   1.547690  -3.158340   0.083098   2.561670  -6.390560  19.463200  -6.905280  -6.397470   5.435440 -59.569100  24.564500 -15.309500  -0.490978   7.234630 -119.214000  52.952300 -13.673800   4.248690  52.769700  51.110000 -100.406000 -18.161700   0.004547   0.007989  -4.080830   0.000272   0.000030 -82.950700   4.966300  -0.614782 -67.890500   0.000477  -0.004957 -50.917900   0.001993  -0.003809 -89.000000  -0.008670   0.000101 -91.339300   0.000871  -0.007461 -68.504500   0.003357  -0.001384 -88.184800  -4.997080   0.157765 -88.191700   0.001112  -0.007580 -66.143800   0.003834  -0.002000 -88.984600  -9.996950   0.176305 -110.000000  -0.002593   0.002091 -80.000000  -0.002277  -0.005741  14.908100  -4.065230  16.784400  40.140100  35.223900  18.520700  -1.782430  -6.350370 113.323000 -51.734600  -8.070760  28.153200 -38.308400  39.565500  80.315200  35.131100   0.002630  -0.001790  12.565600  -0.000854   0.002774  88.996100   5.002740   0.088268  76.773400   0.000969   0.002063  57.580000   0.003852   0.001041  88.614900  -0.000644   0.000826  88.614900  -0.000295   0.002920  66.461200   0.001555   0.007056  88.996200  -4.996480  -0.087790  93.722500   0.001163   0.002235  70.291700   0.001492  -0.001089  88.984700  -9.995710  -0.176296 110.000000   0.000000  -0.003241  79.994600  -0.006277   0.001264  -0.329705  17.468800   5.106360  -0.939723   3.250780  15.463600  -2.538970  -6.395420  10.355600   0.000000   0.000000   0.000000   2.529360   9.935740  -6.315850  -4.502390  15.226000  -3.347450  -8.126690  -4.533740   2.046930  -0.000000   0.000000   0.000000
  1.696610  89.684300   1.374140  -4.132000 -17.383200 -10.684600  -0.001350  11.399400  -0.175431   0.034831  22.798700  -0.361690   1.557890  -3.080160   0.082788   2.579750  -6.232200  19.311300  -6.899450  -6.268690   5.509960 -59.843800  24.299500 -14.932600  -0.268718   7.747510 -119.228000  52.982400 -13.680300   3.929660  51.367900  50.208300 -98.599600 -19.199300   0.004474   0.008121  -4.599650   0.000271   0.000075 -83.143600   4.962320  -0.596302 -68.047800   0.000495  -0.004966 -51.035800   0.001992  -0.003863 -89.000000  -0.008697   0.000000 -91.503000   0.000896  -0.007478 -68.627300   0.003623  -0.001415 -88.344600  -4.997300   0.144028 -88.351000   0.001138  -0.007639 -66.263200   0.004080  -0.002066 -88.984600  -9.996720   0.176300 -110.000000  -0.002432   0.001950 -80.000000  -0.002301  -0.005697  14.905100  -3.987710  16.698000  40.391500  35.391800  18.460700  -1.767600  -6.342250 113.502000 -51.450600  -7.926230  28.294700 -38.435700  39.707100  80.508600  35.074900   0.002539  -0.001736  12.537500  -0.001032   0.002839  88.996100   5.002770   0.088287  76.833700   0.000969   0.002288  57.625300   0.003835   0.001182  88.698800  -0.000640   0.000831  88.698900  -0.000268   0.002956  66.524100   0.001790   0.007304  88.996200  -4.996380  -0.087788  93.829400   0.001125   0.002472  70.372000   0.001682  -0.001219  88.984700  -9.995630  -0.176286 110.000000   0.000000  -0.003292  79.994600  -0.006411   0.001181  -0.329533  17.511500   4.924580  -0.983872   3.236350  15.460300  -2.519280  -6.415360  10.417300  -0.000000   0.000000   0.000000   2.509260   9.913600  -6.247470  -4.493440  15.271900  -3.388120  -8.173730  -4.596110   1.921480   0.000000   0.000000   0.000000
  1.713770  89.671400   1.305120  -4.081280 -17.365600 -10.578600  -0.024289  11.295700  -0.135045  -0.019996  22.591500  -0.273579   1.556950  -2.996740   0.082474   2.579650  -6.063360  19.139000  -6.914470  -6.276030   5.504950 -59.855600  24.454800 -14.669700  -0.087253   7.746950 -119.212000  52.948500 -13.751200   3.756040  50.281400  49.455100 -97.181500 -19.830500   0.004346   0.008242  -4.915260   0.000274   0.000100 -83.280300   4.962880  -0.584337 -68.159200   0.000506  -0.004979 -51.119300   0.002006  -0.003917 -89.000000  -0.008727  -0.000073 -91.617700   0.000953  -0.007508 -68.713300   0.003919  -0.001441 -88.530200  -4.997550   0.128024 -88.535800   0.001165  -0.007693 -66.401900   0.004330  -0.002133 -88.984600  -9.996500   0.176298 -110.000000  -0.002257   0.001815 -80.000000  -0.002321  -0.005656  14.923700  -3.974770  16.633700  40.553100  35.544500  18.497100  -1.778500  -6.378870 113.559000 -51.310800  -7.744930  28.442800 -38.437200  39.761600  80.521400  35.023900   0.002442  -0.001645  12.512000  -0.001207   0.002907  88.996100   5.002780   0.088291  76.765400   0.000969   0.002541  57.574100   0.003817   0.001322  88.586500  -0.000644   0.000826  88.586500  -0.000231   0.002995  66.439900   0.002037   0.007555  88.996200  -4.996300  -0.087802  93.717100   0.001082   0.002722  70.287800   0.001888  -0.001350  88.984700  -9.995560  -0.176293 110.000000   0.000000  -0.003341  79.994500  -0.006544   0.001091  -0.332015  17.395300   4.601100  -1.011480   3.339410  15.613100  -2.503570  -6.425870  10.464500   0.000000   0.000000  -0.000000   2.482210   9.872310  -6.175540  -4.455990  15.306000  -3.480760  -8.218870  -4.659490   1.829020   0.000000   0.000000  -0.000000
  1.732360  89.661700   1.234900  -4.032360 -17.320600 -10.468500  -0.039830  11.194300  -0.095480  -0.062033  22.388700  -0.188414   1.551150  -2.918600   0.082166   2.566510  -5.905230  18.950500  -6.934510  -6.327360   5.469890 -59.690300  24.857900 -14.535200  -0.071319   7.729120 -119.135000  52.926500 -13.820100   3.644300  49.410500  48.813200 -96.033600 -20.237000   0.004170   0.008360  -5.118510   0.000277   0.000120 -83.360800   4.963910  -0.577310 -68.224800   0.000513  -0.004993 -51.168500   0.002026  -0.003975 -89.000000  -0.008756  -0.000143 -91.687000   0.001014  -0.007539 -68.765300   0.004229  -0.001470 -88.648200  -4.997840   0.117923 -88.653300   0.001197  -0.007747 -66.490000   0.004588  -0.002205 -88.984600  -9.996300   0.176297 -110.000000  -0.002080   0.001684 -80.000000  -0.002341  -0.005614  14.951500  -3.973320  16.605100  40.657800  35.700300  18.534700  -1.806840  -6.457410 113.563000 -51.221800  -7.636250  28.510200 -38.434600  39.782300  80.518800  34.994400   0.002345  -0.001558  12.497200  -0.001382   0.002977  88.996100   5.002790   0.088295  76.672800   0.000974   0.002810  57.504700   0.003803   0.001462  88.474200  -0.000656   0.000821  88.474200  -0.000188   0.003035  66.355700   0.002298   0.007806  88.996200  -4.996230  -0.087816  93.573500   0.001040   0.002986  70.180200   0.002105  -0.001480  88.984700  -9.995480  -0.176301 110.000000   0.000000  -0.003388  79.994400  -0.006672   0.001004  -0.337435  17.214700   4.217380  -1.036500   3.442750  15.864600  -2.492920  -6.428130  10.518800   0.000000   0.000000   0.000000   2.457570   9.817660  -6.117670  -4.411340  15.318300  -3.576940  -8.257160  -4.712610   1.752230  -0.000000   0.000000  -0.000000
  1.756750  89.654500   1.167720  -3.992170 -17.256900 -10.360800  -0.048267  11.104800  -0.055682  -0.090168  22.209800  -0.104299   1.535270  -2.853880   0.081869   2.537030  -5.776990  18.744500  -6.940360  -6.492530   5.354100 -59.351600  25.592200 -14.549000  -0.014175   7.235250 -119.061000  52.852700 -13.711800   3.480930  48.818100  48.359900 -95.243600 -20.426500   0.003943   0.008480  -5.213290   0.000274   0.000137 -83.390400   4.965070  -0.574531 -68.248900   0.000522  -0.005003 -51.186600   0.002035  -0.004037 -89.000000  -0.008779  -0.000226 -91.713000   0.001056  -0.007560 -68.784800   0.004539  -0.001507 -88.662500  -4.998130   0.116795 -88.667600   0.001245  -0.007800 -66.500600   0.004853  -0.002287 -88.984600  -9.996100   0.176301 -110.000000  -0.001907   0.001553 -80.000000  -0.002363  -0.005570  14.995000  -4.010330  16.604400  40.591600  35.837700  18.712400  -1.835310  -6.595250 113.554000 -51.165900  -7.734850  28.381200 -38.319600  39.651000  80.346300  35.050800   0.002260  -0.001520  12.525400  -0.001561   0.003049  88.996100   5.002790   0.088312  76.643900   0.000984   0.003081  57.483000   0.003792   0.001597  88.474300  -0.000676   0.000834  88.474300  -0.000140   0.003075  66.355700   0.002573   0.008052  88.996200  -4.996150  -0.087812  93.537000   0.001007   0.003268  70.152800   0.002328  -0.001605  88.984700  -9.995420  -0.176295 110.000000   0.000000  -0.003434  79.994300  -0.006793   0.000926  -0.357999  17.107100   3.831450  -1.026920   3.441490  16.083900  -2.486610  -6.419250  10.593900  -0.000000   0.000000   0.000000   2.441920   9.748470  -6.089590  -4.379990  15.317300  -3.635430  -8.280410  -4.753710   1.675450   0.000000   0.000000  -0.000000
